<?xml version="1.0" standalone="no"?>
<!DOCTYPE svg PUBLIC "-//W3C//DTD SVG 20010904//EN"
 "http://www.w3.org/TR/2001/REC-SVG-20010904/DTD/svg10.dtd">
<svg version="1.0" xmlns="http://www.w3.org/2000/svg"
 width="317.000000pt" height="317.000000pt" viewBox="0 0 317.000000 317.000000"
 preserveAspectRatio="xMidYMid meet">
<metadata>
Created by potrace 1.11, written by Peter Selinger 2001-2013
</metadata>
<g transform="translate(0.000000,317.000000) scale(0.100000,-0.100000)"
fill="#000000" stroke="none">
<path d="M260 3083 c0 -5 13 -42 28 -83 82 -215 141 -406 211 -683 83 -330 94
-379 155 -729 4 -25 22 -151 31 -213 4 -31 29 -271 40 -385 20 -203 9 -691
-20 -859 l-7 -44 51 6 c28 3 76 14 106 23 50 16 56 21 64 53 25 96 34 394 17
556 -3 28 -8 86 -12 130 -3 44 -8 82 -9 85 -2 3 -6 30 -10 60 -33 280 -150
808 -252 1140 -19 63 -37 124 -40 135 -14 54 -111 325 -156 440 -62 155 -167
368 -184 373 -7 2 -13 0 -13 -5z"/>
<path d="M530 2862 c0 -15 28 -34 40 -27 5 3 10 1 10 -4 0 -6 9 -11 20 -11 11
0 20 -5 20 -11 0 -5 4 -8 9 -5 5 3 14 -1 21 -9 7 -8 20 -15 29 -15 10 0 27 -9
38 -19 12 -11 24 -17 27 -14 3 4 6 0 6 -7 0 -7 3 -10 7 -7 3 4 12 -1 20 -11
10 -11 12 -12 8 -2 -4 8 3 4 14 -9 12 -13 21 -19 21 -15 0 5 5 1 11 -8 5 -10
16 -18 22 -18 7 0 19 -9 27 -19 7 -11 17 -18 21 -15 5 3 14 -4 21 -16 7 -11
19 -20 26 -20 7 0 17 -11 24 -25 6 -13 14 -22 19 -20 4 3 10 -4 14 -15 3 -11
14 -20 22 -20 9 0 13 -3 10 -6 -3 -4 8 -20 24 -35 17 -16 28 -29 24 -29 -5 0
2 -8 13 -19 12 -10 22 -24 22 -30 0 -7 5 -9 11 -6 6 4 9 0 7 -11 -2 -11 2 -18
10 -16 6 1 11 -1 10 -5 -4 -16 14 -53 23 -48 5 4 9 -1 9 -9 0 -9 4 -16 10 -16
5 0 7 -8 3 -17 -3 -10 -3 -15 2 -11 13 12 103 -187 97 -214 -1 -5 3 -8 10 -8
6 0 9 -3 6 -6 -4 -3 0 -20 7 -39 8 -18 11 -35 8 -39 -4 -3 -2 -6 3 -6 5 0 11
-14 12 -31 1 -18 6 -37 9 -43 4 -6 8 -17 9 -26 2 -19 12 -76 21 -115 3 -16 8
-41 9 -55 17 -158 20 -304 9 -465 -3 -49 -7 -109 -8 -133 -1 -23 -5 -42 -10
-42 -5 0 -7 -10 -6 -22 1 -13 -1 -39 -6 -58 -5 -19 -9 -42 -10 -50 -1 -8 -5
-31 -10 -50 -4 -19 -9 -42 -10 -50 -1 -8 -5 -22 -8 -30 -4 -8 -9 -26 -11 -40
-3 -14 -5 -25 -6 -25 -2 0 -7 -20 -15 -60 -3 -16 -11 -35 -17 -42 -6 -7 -7
-13 -3 -13 4 0 2 -7 -5 -15 -6 -8 -9 -19 -5 -25 3 -5 2 -10 -3 -10 -5 0 -9 -7
-10 -15 -1 -8 -3 -22 -4 -30 -1 -8 -5 -15 -10 -15 -4 0 -7 -3 -6 -7 1 -5 -8
-27 -20 -50 -12 -24 -19 -43 -15 -43 5 0 4 -4 -2 -8 -5 -4 -17 -16 -25 -26
-13 -18 -13 -19 0 -11 12 6 13 5 2 -6 -6 -7 -12 -17 -12 -22 0 -16 72 4 105
29 18 13 37 24 43 24 7 0 12 5 12 11 0 5 5 7 10 4 6 -3 10 -2 10 3 0 4 16 16
35 25 19 9 35 21 35 27 0 5 6 10 14 10 7 0 25 11 40 25 15 14 31 23 36 20 4
-3 11 2 14 11 4 9 9 14 12 11 3 -3 17 6 29 19 13 14 26 25 30 24 4 -1 22 12
40 28 18 17 35 29 38 26 2 -3 12 7 21 21 9 14 21 23 26 20 6 -4 10 0 10 8 0 7
11 19 24 26 13 7 30 24 37 37 7 13 14 22 17 20 7 -7 41 27 36 36 -3 4 2 8 10
8 9 0 15 6 14 13 -2 6 3 11 10 9 6 -1 12 3 12 9 0 7 10 20 22 30 11 11 17 19
13 19 -4 0 5 12 21 26 16 15 23 23 15 19 -9 -5 -7 1 5 18 10 15 23 27 27 27 5
0 5 5 2 10 -3 6 -2 10 3 10 5 0 17 18 27 40 10 22 22 40 27 40 5 0 8 6 6 13
-1 6 6 26 15 44 9 18 18 40 20 50 1 10 6 24 10 30 5 7 10 22 13 33 2 11 7 30
10 42 22 84 21 262 -1 363 -4 17 -8 37 -10 45 -2 8 -4 16 -5 18 -2 1 -3 5 -5
10 -1 4 -5 21 -10 37 -4 17 -11 32 -14 35 -13 11 -31 51 -31 70 0 11 -7 23
-15 26 -8 4 -12 10 -9 15 3 5 0 9 -6 9 -6 0 -8 4 -5 10 3 5 -6 19 -20 32 -14
12 -23 28 -21 35 3 7 -3 17 -12 22 -9 6 -13 11 -8 11 5 0 -1 8 -12 19 -12 10
-19 21 -15 25 3 3 -1 6 -10 6 -9 0 -16 3 -16 8 4 21 -3 32 -18 32 -9 0 -14 3
-10 6 3 3 -12 24 -34 46 -21 22 -39 45 -39 50 0 5 -5 6 -10 3 -5 -3 -10 -2
-10 2 0 5 -7 18 -16 29 -8 10 -12 12 -8 4 7 -13 -27 16 -126 111 -20 19 -42
33 -48 31 -7 -2 -12 3 -12 12 0 15 -40 44 -40 29 -1 -4 -10 3 -21 16 -20 25
-44 41 -88 61 -13 6 -32 20 -42 31 -10 12 -23 18 -30 13 -8 -4 -9 -3 -5 4 6
11 -6 17 -27 13 -4 -1 -10 5 -13 12 -3 8 -16 13 -29 12 -15 -2 -22 1 -19 9 3
7 -7 18 -22 25 -15 6 -24 14 -21 18 5 5 107 -38 161 -68 10 -6 34 -19 52 -30
19 -10 50 -28 70 -39 83 -47 168 -103 172 -112 2 -5 9 -8 16 -8 7 0 23 -11 36
-25 13 -14 25 -23 28 -21 2 2 12 -3 22 -12 10 -9 31 -26 45 -37 87 -66 328
-306 326 -325 0 -3 12 -19 27 -36 27 -32 51 -68 74 -114 7 -14 15 -27 18 -30
16 -14 104 -250 93 -250 -3 0 -1 -6 4 -12 5 -7 10 -24 11 -38 1 -14 5 -56 10
-95 4 -38 4 -83 1 -100 -4 -16 -7 -51 -8 -78 0 -26 -5 -55 -10 -65 -5 -9 -20
-48 -33 -87 -12 -38 -28 -76 -35 -83 -7 -8 -11 -17 -8 -22 3 -5 2 -10 -2 -12
-10 -4 -73 -94 -73 -103 0 -3 -10 -16 -22 -29 -13 -13 -48 -50 -78 -82 -30
-33 -86 -85 -125 -114 -38 -30 -71 -58 -73 -62 -2 -5 -10 -8 -18 -8 -8 0 -14
-5 -14 -11 0 -5 -4 -7 -10 -4 -5 3 -10 1 -10 -5 0 -6 -8 -14 -17 -18 -10 -4
-45 -23 -78 -42 -33 -19 -78 -44 -100 -55 -22 -11 -41 -28 -43 -39 -3 -16 1
-17 30 -11 18 4 35 10 38 14 3 3 14 8 25 9 11 2 22 7 25 10 3 4 16 9 30 11 14
1 43 12 64 22 22 10 46 19 53 19 7 0 13 5 13 12 0 6 3 9 6 6 6 -6 78 23 178
73 32 16 65 29 72 29 7 0 14 4 16 8 2 5 45 29 97 55 115 59 256 150 264 171 4
9 12 16 18 16 13 0 136 104 157 132 7 9 18 23 25 30 59 60 127 173 148 248 7
25 15 52 17 60 14 44 12 179 -3 235 -10 33 -19 70 -22 83 -3 12 -9 22 -14 22
-5 0 -9 9 -9 20 0 11 -5 20 -11 20 -5 0 -8 4 -4 9 3 5 0 15 -7 23 -7 7 -22 29
-32 48 -11 19 -25 40 -30 47 -6 6 -21 24 -33 40 -38 49 -146 157 -208 209 -33
27 -66 54 -73 61 -7 7 -26 20 -42 30 -17 9 -30 21 -30 25 0 4 -5 8 -10 8 -6 0
-20 9 -32 20 -12 11 -34 26 -50 32 -15 7 -28 15 -28 18 0 3 -17 14 -37 25 -21
10 -45 24 -53 31 -23 17 -150 85 -150 79 0 -2 -23 9 -50 25 -28 17 -57 30 -65
30 -8 0 -15 3 -15 8 0 4 -15 13 -32 21 -58 23 -92 38 -149 65 -31 14 -59 26
-63 26 -3 0 -25 9 -49 19 -23 10 -73 29 -112 42 -38 13 -74 26 -80 30 -5 4
-44 17 -85 28 -41 12 -84 26 -95 31 -11 5 -44 16 -72 24 -50 14 -53 14 -53 -3
0 -16 -25 -10 -191 46 -105 34 -197 63 -206 63 -8 0 -11 5 -8 10 3 6 -1 10 -9
10 -9 0 -16 4 -16 9 0 6 -8 9 -17 9 -10 -1 -42 2 -70 6 -32 4 -53 4 -53 -2z
m665 -213 c3 -4 0 -11 -6 -15 -8 -4 -9 -3 -5 4 4 7 1 12 -8 12 -8 0 -17 4 -20
9 -4 5 3 7 14 4 11 -3 23 -9 25 -14z"/>
</g>
</svg>
